<svg width="35" height="32" viewBox="0 0 35 32" fill="none" xmlns="http://www.w3.org/2000/svg">
<rect x="0.5" width="34" height="32" rx="15" fill="#2C4C20"/>
<path d="M23.5 22.5C23.1022 22.5 22.7206 22.342 22.4393 22.0607C22.158 21.7794 22 21.3978 22 21C22 20.6022 22.158 20.2206 22.4393 19.9393C22.7206 19.658 23.1022 19.5 23.5 19.5C23.8978 19.5 24.2794 19.658 24.5607 19.9393C24.842 20.2206 25 20.6022 25 21C25 21.3978 24.842 21.7794 24.5607 22.0607C24.2794 22.342 23.8978 22.5 23.5 22.5ZM25 13.5L26.96 16H22.5V13.5M11.5 22.5C11.1022 22.5 10.7206 22.342 10.4393 22.0607C10.158 21.7794 10 21.3978 10 21C10 20.6022 10.158 20.2206 10.4393 19.9393C10.7206 19.658 11.1022 19.5 11.5 19.5C11.8978 19.5 12.2794 19.658 12.5607 19.9393C12.842 20.2206 13 20.6022 13 21C13 21.3978 12.842 21.7794 12.5607 22.0607C12.2794 22.342 11.8978 22.5 11.5 22.5ZM25.5 12H22.5V8H8.5C7.39 8 6.5 8.89 6.5 10V21H8.5C8.5 21.7956 8.81607 22.5587 9.37868 23.1213C9.94129 23.6839 10.7044 24 11.5 24C12.2956 24 13.0587 23.6839 13.6213 23.1213C14.1839 22.5587 14.5 21.7956 14.5 21H20.5C20.5 21.7956 20.8161 22.5587 21.3787 23.1213C21.9413 23.6839 22.7044 24 23.5 24C24.2956 24 25.0587 23.6839 25.6213 23.1213C26.1839 22.5587 26.5 21.7956 26.5 21H28.5V16L25.5 12Z" fill="white"/>
</svg>
