<svg width="39" height="32" viewBox="0 0 39 32" fill="none" xmlns="http://www.w3.org/2000/svg">
<rect x="0.5" width="38" height="32" rx="15" fill="#2C4C20"/>
<path d="M23.5 10H18V14H8.5V19H10.5C10.5 19.7956 10.8161 20.5587 11.3787 21.1213C11.9413 21.6839 12.7044 22 13.5 22C14.2956 22 15.0587 21.6839 15.6213 21.1213C16.1839 20.5587 16.5 19.7956 16.5 19H22.5C22.5 19.7956 22.8161 20.5587 23.3787 21.1213C23.9413 21.6839 24.7044 22 25.5 22C26.2956 22 27.0587 21.6839 27.6213 21.1213C28.1839 20.5587 28.5 19.7956 28.5 19H30.5V16C30.5 14.89 29.61 14 28.5 14H26.5L23.5 10ZM19.5 11.5H23L24.96 14H19.5V11.5ZM13.5 17.5C13.8978 17.5 14.2794 17.658 14.5607 17.9393C14.842 18.2206 15 18.6022 15 19C15 19.3978 14.842 19.7794 14.5607 20.0607C14.2794 20.342 13.8978 20.5 13.5 20.5C13.1022 20.5 12.7206 20.342 12.4393 20.0607C12.158 19.7794 12 19.3978 12 19C12 18.6022 12.158 18.2206 12.4393 17.9393C12.7206 17.658 13.1022 17.5 13.5 17.5ZM25.5 17.5C25.8978 17.5 26.2794 17.658 26.5607 17.9393C26.842 18.2206 27 18.6022 27 19C27 19.3978 26.842 19.7794 26.5607 20.0607C26.2794 20.342 25.8978 20.5 25.5 20.5C25.1022 20.5 24.7206 20.342 24.4393 20.0607C24.158 19.7794 24 19.3978 24 19C24 18.6022 24.158 18.2206 24.4393 17.9393C24.7206 17.658 25.1022 17.5 25.5 17.5Z" fill="white"/>
</svg>
