<svg width="35" height="34" viewBox="0 0 35 34" fill="none" xmlns="http://www.w3.org/2000/svg">
<rect x="0.5" width="34" height="34" rx="15" fill="#2C4C20"/>
<path d="M26.5 16.5V21C26.5 21.2652 26.3946 21.5196 26.2071 21.7071C26.0196 21.8946 25.7652 22 25.5 22H24M26.5 16.5H19.5M26.5 16.5L24.764 12.594C24.6854 12.4172 24.5573 12.2669 24.3951 12.1615C24.2328 12.0561 24.0435 12 23.85 12H19.5M24 22C24 22.5304 23.7893 23.0391 23.4142 23.4142C23.0391 23.7893 22.5304 24 22 24C21.4696 24 20.9609 23.7893 20.5858 23.4142C20.2107 23.0391 20 22.5304 20 22M24 22C24 21.4696 23.7893 20.9609 23.4142 20.5858C23.0391 20.2107 22.5304 20 22 20C21.4696 20 20.9609 20.2107 20.5858 20.5858C20.2107 20.9609 20 21.4696 20 22M19.5 16.5V22M19.5 16.5V12M19.5 12V11C19.5 10.7348 19.3946 10.4804 19.2071 10.2929C19.0196 10.1054 18.7652 10 18.5 10H9.5C9.23478 10 8.98043 10.1054 8.79289 10.2929C8.60536 10.4804 8.5 10.7348 8.5 11V21C8.5 21.2652 8.60536 21.5196 8.79289 21.7071C8.98043 21.8946 9.23478 22 9.5 22H11M11 22C11 22.5304 11.2107 23.0391 11.5858 23.4142C11.9609 23.7893 12.4696 24 13 24C13.5304 24 14.0391 23.7893 14.4142 23.4142C14.7893 23.0391 15 22.5304 15 22M11 22C11 21.4696 11.2107 20.9609 11.5858 20.5858C11.9609 20.2107 12.4696 20 13 20C13.5304 20 14.0391 20.2107 14.4142 20.5858C14.7893 20.9609 15 21.4696 15 22M15 22H19.5M19.5 22H20" stroke="white" stroke-width="2" stroke-linecap="round" stroke-linejoin="round"/>
</svg>
