<svg width="158" height="85" viewBox="0 0 158 85" fill="none" xmlns="http://www.w3.org/2000/svg">
<path d="M6.86612 4.22834C6.82351 3.79865 6.64063 3.46484 6.31747 3.22692C5.99432 2.98899 5.55575 2.87003 5.00178 2.87003C4.62536 2.87003 4.30753 2.9233 4.0483 3.02983C3.78906 3.13281 3.5902 3.27663 3.4517 3.46129C3.31676 3.64595 3.24929 3.85547 3.24929 4.08984C3.24219 4.28516 3.28303 4.45561 3.3718 4.60121C3.46413 4.7468 3.5902 4.87287 3.75 4.9794C3.9098 5.08239 4.09446 5.17294 4.30398 5.25107C4.51349 5.32564 4.73722 5.38956 4.97514 5.44283L5.95526 5.6772C6.43111 5.78374 6.8679 5.92578 7.26562 6.10334C7.66335 6.28089 8.00781 6.49929 8.29901 6.75852C8.5902 7.01776 8.8157 7.32315 8.9755 7.67472C9.13885 8.02628 9.2223 8.42933 9.22585 8.88388C9.2223 9.55149 9.05185 10.1303 8.71449 10.6204C8.38068 11.1069 7.89773 11.4851 7.26562 11.755C6.63707 12.0213 5.87891 12.1545 4.99112 12.1545C4.11044 12.1545 3.34339 12.0195 2.68999 11.7496C2.04013 11.4798 1.53232 11.0803 1.16655 10.5511C0.804332 10.0185 0.614347 9.35973 0.596591 8.57493H2.82848C2.85334 8.9407 2.9581 9.24609 3.14276 9.49112C3.33097 9.7326 3.58132 9.91548 3.89382 10.0398C4.20987 10.1605 4.56676 10.2209 4.96449 10.2209C5.35511 10.2209 5.69425 10.1641 5.98189 10.0504C6.27308 9.93679 6.49858 9.77876 6.65838 9.57635C6.81818 9.37393 6.89808 9.14134 6.89808 8.87855C6.89808 8.63352 6.82528 8.42756 6.67969 8.26065C6.53764 8.09375 6.32813 7.9517 6.05114 7.83452C5.7777 7.71733 5.44212 7.6108 5.04439 7.51491L3.85653 7.21662C2.93679 6.9929 2.21058 6.64311 1.67791 6.16726C1.14524 5.69141 0.880682 5.05043 0.884233 4.24432C0.880682 3.58381 1.05646 3.00675 1.41158 2.51314C1.77024 2.01953 2.26207 1.63423 2.88707 1.35724C3.51207 1.08026 4.2223 0.941761 5.01776 0.941761C5.82741 0.941761 6.53409 1.08026 7.13778 1.35724C7.74503 1.63423 8.21733 2.01953 8.55469 2.51314C8.89205 3.00675 9.06605 3.57848 9.0767 4.22834H6.86612ZM15.6964 8.51634V3.81818H17.9656V12H15.787V10.5138H15.7018C15.5171 10.9933 15.2099 11.3786 14.7803 11.6697C14.3541 11.9609 13.8339 12.1065 13.2195 12.1065C12.6727 12.1065 12.1915 11.9822 11.776 11.7337C11.3605 11.4851 11.0356 11.1317 10.8012 10.6737C10.5704 10.2156 10.4532 9.6669 10.4496 9.0277V3.81818H12.7188V8.62287C12.7224 9.10582 12.852 9.48757 13.1077 9.76811C13.3633 10.0487 13.706 10.1889 14.1357 10.1889C14.4092 10.1889 14.6648 10.1268 14.9028 10.0025C15.1407 9.87464 15.3325 9.68643 15.4781 9.43785C15.6272 9.18928 15.7 8.8821 15.6964 8.51634ZM26.3032 6.15128L24.2258 6.27912C24.1903 6.10156 24.1139 5.94176 23.9968 5.79972C23.8796 5.65412 23.7251 5.53871 23.5333 5.45348C23.3451 5.3647 23.1196 5.32031 22.8568 5.32031C22.5053 5.32031 22.2088 5.39489 21.9673 5.54403C21.7258 5.68963 21.6051 5.88494 21.6051 6.12997C21.6051 6.32528 21.6832 6.49041 21.8394 6.62536C21.9957 6.7603 22.2638 6.86861 22.6438 6.95028L24.1246 7.24858C24.9201 7.41193 25.5131 7.67472 25.9037 8.03693C26.2943 8.39915 26.4897 8.875 26.4897 9.46449C26.4897 10.0007 26.3316 10.4712 26.0156 10.8761C25.7031 11.2809 25.2734 11.5969 24.7265 11.8242C24.1832 12.0479 23.5564 12.1598 22.8462 12.1598C21.7631 12.1598 20.9002 11.9343 20.2574 11.4833C19.6182 11.0288 19.2436 10.4109 19.1335 9.62962L21.3654 9.51243C21.4328 9.84268 21.5962 10.0948 21.8554 10.2688C22.1147 10.4393 22.4467 10.5245 22.8515 10.5245C23.2492 10.5245 23.5688 10.4482 23.8103 10.2955C24.0554 10.1392 24.1796 9.93857 24.1832 9.69354C24.1796 9.48757 24.0926 9.31889 23.9222 9.1875C23.7517 9.05256 23.4889 8.94957 23.1338 8.87855L21.7169 8.59624C20.9179 8.43643 20.3231 8.15945 19.9325 7.76527C19.5454 7.37109 19.3519 6.86861 19.3519 6.25781C19.3519 5.73224 19.4939 5.27947 19.778 4.8995C20.0657 4.51953 20.4687 4.22656 20.9872 4.0206C21.5092 3.81463 22.12 3.71165 22.8196 3.71165C23.8529 3.71165 24.6662 3.93004 25.2592 4.36683C25.8558 4.80362 26.2038 5.39844 26.3032 6.15128ZM31.9855 3.81818V5.52273H27.0583V3.81818H31.9855ZM28.1769 1.85795H30.446V9.4858C30.446 9.69531 30.478 9.85866 30.5419 9.97585C30.6058 10.0895 30.6946 10.1694 30.8083 10.2156C30.9255 10.2617 31.0604 10.2848 31.2131 10.2848C31.3196 10.2848 31.4262 10.2759 31.5327 10.2582C31.6392 10.2369 31.7209 10.2209 31.7777 10.2102L32.1346 11.8988C32.021 11.9343 31.8612 11.9751 31.6552 12.0213C31.4492 12.071 31.1989 12.1012 30.9041 12.1119C30.3573 12.1332 29.8779 12.0604 29.4659 11.8935C29.0576 11.7266 28.7397 11.4673 28.5125 11.1158C28.2852 10.7642 28.1733 10.3203 28.1769 9.78409V1.85795ZM35.5117 12.1545C34.9897 12.1545 34.5245 12.0639 34.1161 11.8828C33.7077 11.6982 33.3846 11.4265 33.1467 11.0678C32.9123 10.7056 32.7951 10.2546 32.7951 9.71484C32.7951 9.2603 32.8786 8.87855 33.0455 8.5696C33.2124 8.26065 33.4396 8.01207 33.7273 7.82386C34.0149 7.63565 34.3416 7.49361 34.7074 7.39773C35.0767 7.30185 35.4638 7.23438 35.8686 7.19531C36.3445 7.1456 36.728 7.09943 37.0192 7.05682C37.3104 7.01065 37.5217 6.94318 37.6531 6.8544C37.7845 6.76562 37.8501 6.63423 37.8501 6.46023V6.42827C37.8501 6.09091 37.7436 5.8299 37.5305 5.64524C37.321 5.46058 37.0227 5.36825 36.6357 5.36825C36.2273 5.36825 35.9023 5.45881 35.6609 5.63991C35.4194 5.81747 35.2596 6.04119 35.1815 6.31108L33.0827 6.14062C33.1893 5.64347 33.3988 5.21378 33.7113 4.85156C34.0238 4.4858 34.4269 4.20526 34.9205 4.00994C35.4176 3.81108 35.9929 3.71165 36.6463 3.71165C37.1009 3.71165 37.5359 3.76491 37.9514 3.87145C38.3704 3.97798 38.7415 4.14311 39.0646 4.36683C39.3913 4.59055 39.6488 4.8782 39.837 5.22976C40.0252 5.57777 40.1193 5.99503 40.1193 6.48153V12H37.9673V10.8654H37.9034C37.772 11.1211 37.5962 11.3466 37.3761 11.5419C37.1559 11.7337 36.8913 11.8846 36.5824 11.9947C36.2734 12.1012 35.9166 12.1545 35.5117 12.1545ZM36.1616 10.5884C36.4954 10.5884 36.7901 10.5227 37.0458 10.3913C37.3015 10.2564 37.5021 10.0753 37.6477 9.84801C37.7933 9.62074 37.8661 9.36328 37.8661 9.07564V8.20739C37.7951 8.25355 37.6974 8.29616 37.5732 8.33523C37.4524 8.37074 37.3157 8.40447 37.163 8.43643C37.0103 8.46484 36.8576 8.49148 36.7049 8.51634C36.5522 8.53764 36.4137 8.55717 36.2894 8.57493C36.0231 8.61399 35.7905 8.67614 35.5916 8.76136C35.3928 8.84659 35.2383 8.962 35.1282 9.1076C35.0181 9.24964 34.9631 9.4272 34.9631 9.64027C34.9631 9.94922 35.0749 10.1854 35.2987 10.3487C35.5259 10.5085 35.8136 10.5884 36.1616 10.5884ZM41.5948 12V3.81818H43.864V12H41.5948ZM42.7347 2.76349C42.3974 2.76349 42.1079 2.65163 41.8665 2.42791C41.6285 2.20064 41.5096 1.92898 41.5096 1.61293C41.5096 1.30043 41.6285 1.03232 41.8665 0.808594C42.1079 0.581321 42.3974 0.467684 42.7347 0.467684C43.0721 0.467684 43.3597 0.581321 43.5976 0.808594C43.8391 1.03232 43.9599 1.30043 43.9599 1.61293C43.9599 1.92898 43.8391 2.20064 43.5976 2.42791C43.3597 2.65163 43.0721 2.76349 42.7347 2.76349ZM47.6659 7.26989V12H45.3967V3.81818H47.5594V5.26172H47.6552C47.8363 4.78587 48.14 4.40945 48.5661 4.13246C48.9922 3.85192 49.5089 3.71165 50.1162 3.71165C50.6844 3.71165 51.1797 3.83594 51.6023 4.08452C52.0249 4.3331 52.3534 4.68821 52.5878 5.14986C52.8221 5.60795 52.9393 6.15483 52.9393 6.79048V12H50.6702V7.19531C50.6737 6.6946 50.5459 6.30398 50.2866 6.02344C50.0274 5.73935 49.6705 5.5973 49.216 5.5973C48.9106 5.5973 48.6407 5.663 48.4063 5.79439C48.1755 5.92578 47.9944 6.11754 47.863 6.36967C47.7351 6.61825 47.6694 6.91832 47.6659 7.26989ZM56.7759 12.1545C56.2538 12.1545 55.7886 12.0639 55.3803 11.8828C54.9719 11.6982 54.6487 11.4265 54.4108 11.0678C54.1764 10.7056 54.0592 10.2546 54.0592 9.71484C54.0592 9.2603 54.1427 8.87855 54.3096 8.5696C54.4765 8.26065 54.7038 8.01207 54.9914 7.82386C55.2791 7.63565 55.6058 7.49361 55.9715 7.39773C56.3408 7.30185 56.7279 7.23438 57.1328 7.19531C57.6086 7.1456 57.9921 7.09943 58.2833 7.05682C58.5745 7.01065 58.7858 6.94318 58.9172 6.8544C59.0486 6.76562 59.1143 6.63423 59.1143 6.46023V6.42827C59.1143 6.09091 59.0078 5.8299 58.7947 5.64524C58.5852 5.46058 58.2869 5.36825 57.8998 5.36825C57.4914 5.36825 57.1665 5.45881 56.925 5.63991C56.6835 5.81747 56.5237 6.04119 56.4456 6.31108L54.3469 6.14062C54.4534 5.64347 54.6629 5.21378 54.9754 4.85156C55.2879 4.4858 55.691 4.20526 56.1846 4.00994C56.6818 3.81108 57.257 3.71165 57.9105 3.71165C58.365 3.71165 58.8 3.76491 59.2155 3.87145C59.6345 3.97798 60.0056 4.14311 60.3288 4.36683C60.6555 4.59055 60.9129 4.8782 61.1011 5.22976C61.2894 5.57777 61.3835 5.99503 61.3835 6.48153V12H59.2315V10.8654H59.1676C59.0362 11.1211 58.8604 11.3466 58.6402 11.5419C58.42 11.7337 58.1555 11.8846 57.8465 11.9947C57.5376 12.1012 57.1807 12.1545 56.7759 12.1545ZM57.4257 10.5884C57.7595 10.5884 58.0543 10.5227 58.31 10.3913C58.5656 10.2564 58.7663 10.0753 58.9119 9.84801C59.0575 9.62074 59.1303 9.36328 59.1303 9.07564V8.20739C59.0592 8.25355 58.9616 8.29616 58.8373 8.33523C58.7166 8.37074 58.5798 8.40447 58.4271 8.43643C58.2744 8.46484 58.1217 8.49148 57.969 8.51634C57.8163 8.53764 57.6779 8.55717 57.5536 8.57493C57.2872 8.61399 57.0546 8.67614 56.8558 8.76136C56.6569 8.84659 56.5024 8.962 56.3923 9.1076C56.2823 9.24964 56.2272 9.4272 56.2272 9.64027C56.2272 9.94922 56.3391 10.1854 56.5628 10.3487C56.7901 10.5085 57.0777 10.5884 57.4257 10.5884ZM62.9016 12V1.09091H65.1707V5.19247H65.24C65.3394 4.9723 65.4832 4.74858 65.6714 4.52131C65.8632 4.29048 66.1118 4.09872 66.4172 3.94602C66.7261 3.78977 67.1096 3.71165 67.5677 3.71165C68.1643 3.71165 68.7148 3.8679 69.219 4.1804C69.7233 4.48935 70.1263 4.95632 70.4282 5.58132C70.73 6.20277 70.881 6.98224 70.881 7.91974C70.881 8.83239 70.7336 9.60298 70.4388 10.2315C70.1476 10.8565 69.7499 11.3306 69.2457 11.6538C68.7449 11.9734 68.1839 12.1332 67.5624 12.1332C67.1221 12.1332 66.7474 12.0604 66.4385 11.9148C66.1331 11.7692 65.8827 11.5863 65.6874 11.3661C65.4921 11.1424 65.343 10.9169 65.24 10.6896H65.1388V12H62.9016ZM65.1228 7.90909C65.1228 8.3956 65.1903 8.81996 65.3252 9.18217C65.4601 9.54439 65.6555 9.8267 65.9111 10.0291C66.1668 10.228 66.4775 10.3274 66.8433 10.3274C67.2126 10.3274 67.5251 10.2262 67.7808 10.0238C68.0365 9.81783 68.23 9.53374 68.3614 9.17152C68.4964 8.80575 68.5638 8.38494 68.5638 7.90909C68.5638 7.43679 68.4981 7.02131 68.3668 6.66264C68.2354 6.30398 68.0418 6.02344 67.7861 5.82102C67.5305 5.61861 67.2162 5.5174 66.8433 5.5174C66.474 5.5174 66.1615 5.61506 65.9058 5.81037C65.6537 6.00568 65.4601 6.28267 65.3252 6.64133C65.1903 7 65.1228 7.42259 65.1228 7.90909ZM74.3792 1.09091V12H72.1101V1.09091H74.3792ZM79.6407 12.1598C78.7991 12.1598 78.0746 11.9893 77.4674 11.6484C76.8637 11.304 76.3985 10.8175 76.0718 10.1889C75.7451 9.55682 75.5817 8.8093 75.5817 7.94638C75.5817 7.10476 75.7451 6.36612 76.0718 5.73047C76.3985 5.09482 76.8584 4.59943 77.4514 4.24432C78.048 3.8892 78.7476 3.71165 79.5501 3.71165C80.0899 3.71165 80.5924 3.79865 81.0576 3.97266C81.5263 4.14311 81.9347 4.40057 82.2827 4.74503C82.6343 5.08949 82.9077 5.52273 83.103 6.04474C83.2984 6.56321 83.396 7.17045 83.396 7.86648V8.4897H76.4873V7.08345H81.26C81.26 6.75675 81.189 6.46733 81.0469 6.2152C80.9049 5.96307 80.7078 5.76598 80.4557 5.62393C80.2071 5.47834 79.9177 5.40554 79.5874 5.40554C79.243 5.40554 78.9376 5.48544 78.6712 5.64524C78.4084 5.80149 78.2025 6.01278 78.0533 6.27912C77.9042 6.5419 77.8278 6.83487 77.8243 7.15803V8.49503C77.8243 8.89986 77.8988 9.24964 78.048 9.54439C78.2007 9.83913 78.4155 10.0664 78.6925 10.2262C78.9695 10.386 79.298 10.4659 79.678 10.4659C79.9301 10.4659 80.1609 10.4304 80.3704 10.3594C80.58 10.2884 80.7593 10.1818 80.9084 10.0398C81.0576 9.89773 81.1712 9.72372 81.2493 9.51776L83.3481 9.65625C83.2415 10.1605 83.0231 10.6009 82.6929 10.9773C82.3662 11.3501 81.9436 11.6413 81.4251 11.8509C80.9102 12.0568 80.3154 12.1598 79.6407 12.1598ZM94.586 6.15128L92.5086 6.27912C92.4731 6.10156 92.3968 5.94176 92.2796 5.79972C92.1624 5.65412 92.0079 5.53871 91.8162 5.45348C91.6279 5.3647 91.4024 5.32031 91.1397 5.32031C90.7881 5.32031 90.4916 5.39489 90.2501 5.54403C90.0086 5.68963 89.8879 5.88494 89.8879 6.12997C89.8879 6.32528 89.966 6.49041 90.1223 6.62536C90.2785 6.7603 90.5466 6.86861 90.9266 6.95028L92.4074 7.24858C93.2029 7.41193 93.7959 7.67472 94.1865 8.03693C94.5772 8.39915 94.7725 8.875 94.7725 9.46449C94.7725 10.0007 94.6144 10.4712 94.2984 10.8761C93.9859 11.2809 93.5562 11.5969 93.0093 11.8242C92.466 12.0479 91.8392 12.1598 91.129 12.1598C90.0459 12.1598 89.183 11.9343 88.5402 11.4833C87.901 11.0288 87.5264 10.4109 87.4163 9.62962L89.6482 9.51243C89.7157 9.84268 89.879 10.0948 90.1382 10.2688C90.3975 10.4393 90.7295 10.5245 91.1343 10.5245C91.5321 10.5245 91.8517 10.4482 92.0931 10.2955C92.3382 10.1392 92.4625 9.93857 92.466 9.69354C92.4625 9.48757 92.3755 9.31889 92.205 9.1875C92.0345 9.05256 91.7718 8.94957 91.4166 8.87855L89.9997 8.59624C89.2007 8.43643 88.6059 8.15945 88.2153 7.76527C87.8282 7.37109 87.6347 6.86861 87.6347 6.25781C87.6347 5.73224 87.7767 5.27947 88.0608 4.8995C88.3485 4.51953 88.7515 4.22656 89.27 4.0206C89.792 3.81463 90.4028 3.71165 91.1024 3.71165C92.1358 3.71165 92.949 3.93004 93.542 4.36683C94.1386 4.80362 94.4866 5.39844 94.586 6.15128ZM99.6131 12.1598C98.7857 12.1598 98.0701 11.984 97.4664 11.6325C96.8663 11.2773 96.4029 10.7837 96.0762 10.1516C95.7495 9.51598 95.5861 8.77912 95.5861 7.94105C95.5861 7.09588 95.7495 6.35724 96.0762 5.72514C96.4029 5.08949 96.8663 4.59588 97.4664 4.24432C98.0701 3.8892 98.7857 3.71165 99.6131 3.71165C100.441 3.71165 101.154 3.8892 101.754 4.24432C102.358 4.59588 102.823 5.08949 103.15 5.72514C103.477 6.35724 103.64 7.09588 103.64 7.94105C103.64 8.77912 103.477 9.51598 103.15 10.1516C102.823 10.7837 102.358 11.2773 101.754 11.6325C101.154 11.984 100.441 12.1598 99.6131 12.1598ZM99.6237 10.402C100 10.402 100.314 10.2955 100.567 10.0824C100.819 9.86577 101.009 9.57102 101.137 9.19815C101.268 8.82528 101.334 8.40092 101.334 7.92507C101.334 7.44922 101.268 7.02486 101.137 6.65199C101.009 6.27912 100.819 5.98437 100.567 5.76776C100.314 5.55114 100 5.44283 99.6237 5.44283C99.2438 5.44283 98.9242 5.55114 98.6649 5.76776C98.4093 5.98437 98.2157 6.27912 98.0843 6.65199C97.9565 7.02486 97.8926 7.44922 97.8926 7.92507C97.8926 8.40092 97.9565 8.82528 98.0843 9.19815C98.2157 9.57102 98.4093 9.86577 98.6649 10.0824C98.9242 10.2955 99.2438 10.402 99.6237 10.402ZM107.1 1.09091V12H104.831V1.09091H107.1ZM113.879 8.51634V3.81818H116.148V12H113.97V10.5138H113.885C113.7 10.9933 113.393 11.3786 112.963 11.6697C112.537 11.9609 112.017 12.1065 111.402 12.1065C110.856 12.1065 110.374 11.9822 109.959 11.7337C109.543 11.4851 109.218 11.1317 108.984 10.6737C108.753 10.2156 108.636 9.6669 108.632 9.0277V3.81818H110.902V8.62287C110.905 9.10582 111.035 9.48757 111.291 9.76811C111.546 10.0487 111.889 10.1889 112.319 10.1889C112.592 10.1889 112.848 10.1268 113.086 10.0025C113.324 9.87464 113.515 9.68643 113.661 9.43785C113.81 9.18928 113.883 8.8821 113.879 8.51634ZM122.03 3.81818V5.52273H117.103V3.81818H122.03ZM118.222 1.85795H120.491V9.4858C120.491 9.69531 120.523 9.85866 120.587 9.97585C120.651 10.0895 120.74 10.1694 120.853 10.2156C120.97 10.2617 121.105 10.2848 121.258 10.2848C121.365 10.2848 121.471 10.2759 121.578 10.2582C121.684 10.2369 121.766 10.2209 121.823 10.2102L122.18 11.8988C122.066 11.9343 121.906 11.9751 121.7 12.0213C121.494 12.071 121.244 12.1012 120.949 12.1119C120.402 12.1332 119.923 12.0604 119.511 11.8935C119.103 11.7266 118.785 11.4673 118.557 11.1158C118.33 10.7642 118.218 10.3203 118.222 9.78409V1.85795ZM123.224 12V3.81818H125.493V12H123.224ZM124.364 2.76349C124.026 2.76349 123.737 2.65163 123.495 2.42791C123.257 2.20064 123.138 1.92898 123.138 1.61293C123.138 1.30043 123.257 1.03232 123.495 0.808594C123.737 0.581321 124.026 0.467684 124.364 0.467684C124.701 0.467684 124.989 0.581321 125.226 0.808594C125.468 1.03232 125.589 1.30043 125.589 1.61293C125.589 1.92898 125.468 2.20064 125.226 2.42791C124.989 2.65163 124.701 2.76349 124.364 2.76349ZM130.722 12.1598C129.895 12.1598 129.179 11.984 128.576 11.6325C127.975 11.2773 127.512 10.7837 127.185 10.1516C126.859 9.51598 126.695 8.77912 126.695 7.94105C126.695 7.09588 126.859 6.35724 127.185 5.72514C127.512 5.08949 127.975 4.59588 128.576 4.24432C129.179 3.8892 129.895 3.71165 130.722 3.71165C131.55 3.71165 132.263 3.8892 132.864 4.24432C133.467 4.59588 133.933 5.08949 134.259 5.72514C134.586 6.35724 134.749 7.09588 134.749 7.94105C134.749 8.77912 134.586 9.51598 134.259 10.1516C133.933 10.7837 133.467 11.2773 132.864 11.6325C132.263 11.984 131.55 12.1598 130.722 12.1598ZM130.733 10.402C131.109 10.402 131.424 10.2955 131.676 10.0824C131.928 9.86577 132.118 9.57102 132.246 9.19815C132.377 8.82528 132.443 8.40092 132.443 7.92507C132.443 7.44922 132.377 7.02486 132.246 6.65199C132.118 6.27912 131.928 5.98437 131.676 5.76776C131.424 5.55114 131.109 5.44283 130.733 5.44283C130.353 5.44283 130.033 5.55114 129.774 5.76776C129.518 5.98437 129.325 6.27912 129.194 6.65199C129.066 7.02486 129.002 7.44922 129.002 7.92507C129.002 8.40092 129.066 8.82528 129.194 9.19815C129.325 9.57102 129.518 9.86577 129.774 10.0824C130.033 10.2955 130.353 10.402 130.733 10.402ZM138.209 7.26989V12H135.94V3.81818H138.102V5.26172H138.198C138.379 4.78587 138.683 4.40945 139.109 4.13246C139.535 3.85192 140.052 3.71165 140.659 3.71165C141.227 3.71165 141.723 3.83594 142.145 4.08452C142.568 4.3331 142.896 4.68821 143.131 5.14986C143.365 5.60795 143.482 6.15483 143.482 6.79048V12H141.213V7.19531C141.217 6.6946 141.089 6.30398 140.83 6.02344C140.57 5.73935 140.214 5.5973 139.759 5.5973C139.454 5.5973 139.184 5.663 138.949 5.79439C138.719 5.92578 138.537 6.11754 138.406 6.36967C138.278 6.61825 138.212 6.91832 138.209 7.26989ZM151.793 6.15128L149.716 6.27912C149.68 6.10156 149.604 5.94176 149.487 5.79972C149.37 5.65412 149.215 5.53871 149.023 5.45348C148.835 5.3647 148.61 5.32031 148.347 5.32031C147.995 5.32031 147.699 5.39489 147.457 5.54403C147.216 5.68963 147.095 5.88494 147.095 6.12997C147.095 6.32528 147.173 6.49041 147.33 6.62536C147.486 6.7603 147.754 6.86861 148.134 6.95028L149.615 7.24858C150.41 7.41193 151.003 7.67472 151.394 8.03693C151.784 8.39915 151.98 8.875 151.98 9.46449C151.98 10.0007 151.822 10.4712 151.506 10.8761C151.193 11.2809 150.764 11.5969 150.217 11.8242C149.673 12.0479 149.047 12.1598 148.336 12.1598C147.253 12.1598 146.39 11.9343 145.748 11.4833C145.108 11.0288 144.734 10.4109 144.624 9.62962L146.855 9.51243C146.923 9.84268 147.086 10.0948 147.346 10.2688C147.605 10.4393 147.937 10.5245 148.342 10.5245C148.739 10.5245 149.059 10.4482 149.3 10.2955C149.545 10.1392 149.67 9.93857 149.673 9.69354C149.67 9.48757 149.583 9.31889 149.412 9.1875C149.242 9.05256 148.979 8.94957 148.624 8.87855L147.207 8.59624C146.408 8.43643 145.813 8.15945 145.423 7.76527C145.036 7.37109 144.842 6.86861 144.842 6.25781C144.842 5.73224 144.984 5.27947 145.268 4.8995C145.556 4.51953 145.959 4.22656 146.477 4.0206C146.999 3.81463 147.61 3.71165 148.31 3.71165C149.343 3.71165 150.156 3.93004 150.749 4.36683C151.346 4.80362 151.694 5.39844 151.793 6.15128ZM155.59 10.5085L155.531 11.0945C155.485 11.5632 155.396 12.0302 155.265 12.4954C155.137 12.9641 155.002 13.3885 154.86 13.7685C154.722 14.1484 154.61 14.4467 154.525 14.6634H153.054C153.108 14.4538 153.18 14.1609 153.273 13.7844C153.365 13.4116 153.452 12.9925 153.534 12.5273C153.615 12.0621 153.667 11.5881 153.688 11.1051L153.715 10.5085H155.59ZM4.63423 35.1598C3.79261 35.1598 3.06818 34.9893 2.46094 34.6484C1.85724 34.304 1.39205 33.8175 1.06534 33.1889C0.738636 32.5568 0.575284 31.8093 0.575284 30.9464C0.575284 30.1048 0.738636 29.3661 1.06534 28.7305C1.39205 28.0948 1.85192 27.5994 2.44496 27.2443C3.04155 26.8892 3.74112 26.7116 4.54368 26.7116C5.08345 26.7116 5.58594 26.7987 6.05114 26.9727C6.51989 27.1431 6.92827 27.4006 7.27628 27.745C7.62784 28.0895 7.90128 28.5227 8.09659 29.0447C8.2919 29.5632 8.38956 30.1705 8.38956 30.8665V31.4897H1.48082V30.0835H6.25355C6.25355 29.7567 6.18253 29.4673 6.04048 29.2152C5.89844 28.9631 5.70135 28.766 5.44922 28.6239C5.20064 28.4783 4.91122 28.4055 4.58097 28.4055C4.23651 28.4055 3.93111 28.4854 3.66477 28.6452C3.40199 28.8015 3.19602 29.0128 3.04688 29.2791C2.89773 29.5419 2.82138 29.8349 2.81783 30.158V31.495C2.81783 31.8999 2.8924 32.2496 3.04155 32.5444C3.19425 32.8391 3.40909 33.0664 3.68608 33.2262C3.96307 33.386 4.29155 33.4659 4.67152 33.4659C4.92365 33.4659 5.15447 33.4304 5.36399 33.3594C5.57351 33.2884 5.75284 33.1818 5.90199 33.0398C6.05114 32.8977 6.16477 32.7237 6.2429 32.5178L8.34162 32.6562C8.23509 33.1605 8.01669 33.6009 7.68643 33.9773C7.35973 34.3501 6.93714 34.6413 6.41868 34.8509C5.90376 35.0568 5.30895 35.1598 4.63423 35.1598ZM13.2821 35.1598C12.444 35.1598 11.7232 34.9822 11.1195 34.6271C10.5193 34.2685 10.0577 33.7713 9.73453 33.1357C9.41493 32.5 9.25513 31.7685 9.25513 30.9411C9.25513 30.103 9.4167 29.3679 9.73986 28.7358C10.0666 28.1001 10.53 27.6048 11.1301 27.2496C11.7303 26.891 12.444 26.7116 13.2715 26.7116C13.9852 26.7116 14.6102 26.8413 15.1465 27.1005C15.6827 27.3597 16.107 27.7237 16.4195 28.1925C16.732 28.6612 16.9043 29.2116 16.9362 29.8438H14.7949C14.7345 29.4354 14.5747 29.1069 14.3155 28.8583C14.0598 28.6062 13.7242 28.4801 13.3088 28.4801C12.9572 28.4801 12.65 28.576 12.3872 28.7678C12.128 28.956 11.9256 29.2312 11.78 29.5934C11.6344 29.9556 11.5616 30.3942 11.5616 30.9091C11.5616 31.4311 11.6326 31.875 11.7747 32.2408C11.9203 32.6065 12.1244 32.8853 12.3872 33.0771C12.65 33.2688 12.9572 33.3647 13.3088 33.3647C13.568 33.3647 13.8006 33.3114 14.0065 33.2049C14.2161 33.0984 14.3883 32.9439 14.5232 32.7415C14.6617 32.5355 14.7523 32.2887 14.7949 32.0011H16.9362C16.9007 32.6261 16.7303 33.1765 16.4249 33.6523C16.123 34.1246 15.7058 34.494 15.1731 34.7603C14.6404 35.0266 14.0101 35.1598 13.2821 35.1598ZM21.8008 35.1598C20.9734 35.1598 20.2579 34.984 19.6542 34.6325C19.054 34.2773 18.5906 33.7837 18.2639 33.1516C17.9372 32.516 17.7738 31.7791 17.7738 30.9411C17.7738 30.0959 17.9372 29.3572 18.2639 28.7251C18.5906 28.0895 19.054 27.5959 19.6542 27.2443C20.2579 26.8892 20.9734 26.7116 21.8008 26.7116C22.6282 26.7116 23.342 26.8892 23.9422 27.2443C24.5459 27.5959 25.0111 28.0895 25.3378 28.7251C25.6645 29.3572 25.8278 30.0959 25.8278 30.9411C25.8278 31.7791 25.6645 32.516 25.3378 33.1516C25.0111 33.7837 24.5459 34.2773 23.9422 34.6325C23.342 34.984 22.6282 35.1598 21.8008 35.1598ZM21.8115 33.402C22.1879 33.402 22.5022 33.2955 22.7543 33.0824C23.0064 32.8658 23.1964 32.571 23.3243 32.1982C23.4557 31.8253 23.5214 31.4009 23.5214 30.9251C23.5214 30.4492 23.4557 30.0249 23.3243 29.652C23.1964 29.2791 23.0064 28.9844 22.7543 28.7678C22.5022 28.5511 22.1879 28.4428 21.8115 28.4428C21.4315 28.4428 21.1119 28.5511 20.8527 28.7678C20.597 28.9844 20.4035 29.2791 20.2721 29.652C20.1442 30.0249 20.0803 30.4492 20.0803 30.9251C20.0803 31.4009 20.1442 31.8253 20.2721 32.1982C20.4035 32.571 20.597 32.8658 20.8527 33.0824C21.1119 33.2955 21.4315 33.402 21.8115 33.402ZM32.116 29.62V31.4205H27.1408V29.62H32.116ZM38.1644 26.8182V28.5227H33.1147V26.8182H38.1644ZM34.2706 35V26.2269C34.2706 25.6339 34.386 25.142 34.6168 24.7514C34.8512 24.3608 35.1708 24.0678 35.5756 23.8725C35.9805 23.6772 36.4403 23.5795 36.9553 23.5795C37.3033 23.5795 37.6211 23.6062 37.9087 23.6594C38.1999 23.7127 38.4166 23.7607 38.5586 23.8033L38.1538 25.5078C38.065 25.4794 37.9549 25.4528 37.8235 25.4279C37.6957 25.4031 37.5643 25.3906 37.4293 25.3906C37.0955 25.3906 36.8629 25.4688 36.7315 25.625C36.6001 25.7777 36.5345 25.9925 36.5345 26.2695V35H34.2706ZM39.2657 35V26.8182H41.4656V28.2457H41.5509C41.7 27.7379 41.9504 27.3544 42.3019 27.0952C42.6535 26.8324 43.0583 26.701 43.5164 26.701C43.63 26.701 43.7526 26.7081 43.8839 26.7223C44.0153 26.7365 44.1308 26.756 44.2302 26.7809V28.7944C44.1237 28.7624 43.9763 28.734 43.7881 28.7092C43.5999 28.6843 43.4276 28.6719 43.2714 28.6719C42.9376 28.6719 42.6393 28.7447 42.3765 28.8903C42.1173 29.0323 41.9113 29.2312 41.7586 29.4869C41.6094 29.7425 41.5349 30.0373 41.5349 30.3711V35H39.2657ZM45.1184 35V26.8182H47.3876V35H45.1184ZM46.2583 25.7635C45.9209 25.7635 45.6315 25.6516 45.3901 25.4279C45.1521 25.2006 45.0332 24.929 45.0332 24.6129C45.0332 24.3004 45.1521 24.0323 45.3901 23.8086C45.6315 23.5813 45.9209 23.4677 46.2583 23.4677C46.5957 23.4677 46.8833 23.5813 47.1212 23.8086C47.3627 24.0323 47.4834 24.3004 47.4834 24.6129C47.4834 24.929 47.3627 25.2006 47.1212 25.4279C46.8833 25.6516 46.5957 25.7635 46.2583 25.7635ZM52.649 35.1598C51.8074 35.1598 51.0829 34.9893 50.4757 34.6484C49.872 34.304 49.4068 33.8175 49.0801 33.1889C48.7534 32.5568 48.5901 31.8093 48.5901 30.9464C48.5901 30.1048 48.7534 29.3661 49.0801 28.7305C49.4068 28.0948 49.8667 27.5994 50.4597 27.2443C51.0563 26.8892 51.7559 26.7116 52.5584 26.7116C53.0982 26.7116 53.6007 26.7987 54.0659 26.9727C54.5347 27.1431 54.943 27.4006 55.291 27.745C55.6426 28.0895 55.916 28.5227 56.1114 29.0447C56.3067 29.5632 56.4043 30.1705 56.4043 30.8665V31.4897H49.4956V30.0835H54.2683C54.2683 29.7567 54.1973 29.4673 54.0552 29.2152C53.9132 28.9631 53.7161 28.766 53.464 28.6239C53.2154 28.4783 52.926 28.4055 52.5957 28.4055C52.2513 28.4055 51.9459 28.4854 51.6795 28.6452C51.4168 28.8015 51.2108 29.0128 51.0616 29.2791C50.9125 29.5419 50.8361 29.8349 50.8326 30.158V31.495C50.8326 31.8999 50.9072 32.2496 51.0563 32.5444C51.209 32.8391 51.4239 33.0664 51.7008 33.2262C51.9778 33.386 52.3063 33.4659 52.6863 33.4659C52.9384 33.4659 53.1692 33.4304 53.3788 33.3594C53.5883 33.2884 53.7676 33.1818 53.9168 33.0398C54.0659 32.8977 54.1795 32.7237 54.2577 32.5178L56.3564 32.6562C56.2499 33.1605 56.0315 33.6009 55.7012 33.9773C55.3745 34.3501 54.9519 34.6413 54.4334 34.8509C53.9185 35.0568 53.3237 35.1598 52.649 35.1598ZM59.8693 30.2699V35H57.6002V26.8182H59.7628V28.2617H59.8587C60.0398 27.7859 60.3434 27.4094 60.7695 27.1325C61.1957 26.8519 61.7124 26.7116 62.3196 26.7116C62.8878 26.7116 63.3832 26.8359 63.8058 27.0845C64.2283 27.3331 64.5568 27.6882 64.7912 28.1499C65.0256 28.608 65.1428 29.1548 65.1428 29.7905V35H62.8736V30.1953C62.8771 29.6946 62.7493 29.304 62.4901 29.0234C62.2308 28.7393 61.8739 28.5973 61.4194 28.5973C61.114 28.5973 60.8441 28.663 60.6097 28.7944C60.3789 28.9258 60.1978 29.1175 60.0664 29.3697C59.9386 29.6183 59.8729 29.9183 59.8693 30.2699ZM69.6611 35.1332C69.0397 35.1332 68.4768 34.9734 67.9726 34.6538C67.4718 34.3306 67.0741 33.8565 66.7794 33.2315C66.4882 32.603 66.3426 31.8324 66.3426 30.9197C66.3426 29.9822 66.4935 29.2028 66.7953 28.5813C67.0972 27.9563 67.4985 27.4893 67.9992 27.1804C68.5034 26.8679 69.0556 26.7116 69.6558 26.7116C70.1139 26.7116 70.4956 26.7898 70.801 26.946C71.11 27.0987 71.3586 27.2905 71.5468 27.5213C71.7385 27.7486 71.8841 27.9723 71.9836 28.1925H72.0528V24.0909H74.3167V35H72.0794V33.6896H71.9836C71.877 33.9169 71.7261 34.1424 71.5308 34.3661C71.339 34.5863 71.0887 34.7692 70.7797 34.9148C70.4743 35.0604 70.1015 35.1332 69.6611 35.1332ZM70.3802 33.3274C70.746 33.3274 71.0549 33.228 71.3071 33.0291C71.5627 32.8267 71.7581 32.5444 71.893 32.1822C72.0315 31.82 72.1007 31.3956 72.1007 30.9091C72.1007 30.4226 72.0333 30 71.8983 29.6413C71.7634 29.2827 71.5681 29.0057 71.3124 28.8104C71.0567 28.6151 70.746 28.5174 70.3802 28.5174C70.0074 28.5174 69.6931 28.6186 69.4374 28.821C69.1817 29.0234 68.9882 29.304 68.8568 29.6626C68.7254 30.0213 68.6597 30.4368 68.6597 30.9091C68.6597 31.3849 68.7254 31.8058 68.8568 32.1715C68.9917 32.5337 69.1853 32.8178 69.4374 33.0238C69.6931 33.2262 70.0074 33.3274 70.3802 33.3274ZM78.1665 24.0909V35H75.8973V24.0909H78.1665ZM81.1002 38.0682C80.8125 38.0682 80.5426 38.0451 80.2905 37.9989C80.0419 37.9563 79.836 37.9013 79.6726 37.8338L80.184 36.1399C80.4503 36.2216 80.69 36.266 80.9031 36.2731C81.1197 36.2802 81.3061 36.2305 81.4624 36.1239C81.6222 36.0174 81.7518 35.8363 81.8512 35.5806L81.9844 35.2344L79.0494 26.8182H81.4358L83.1296 32.8267H83.2149L84.9247 26.8182H87.3271L84.147 35.8842C83.9943 36.3246 83.7866 36.7081 83.5238 37.0348C83.2646 37.3651 82.9361 37.619 82.5384 37.7965C82.1407 37.9776 81.6613 38.0682 81.1002 38.0682ZM91.39 38.0682V26.8182H93.6272V28.1925H93.7284C93.8278 27.9723 93.9717 27.7486 94.1599 27.5213C94.3516 27.2905 94.6002 27.0987 94.9056 26.946C95.2146 26.7898 95.5981 26.7116 96.0562 26.7116C96.6528 26.7116 97.2032 26.8679 97.7075 27.1804C98.2117 27.4893 98.6148 27.9563 98.9166 28.5813C99.2185 29.2028 99.3694 29.9822 99.3694 30.9197C99.3694 31.8324 99.222 32.603 98.9273 33.2315C98.6361 33.8565 98.2384 34.3306 97.7341 34.6538C97.2334 34.9734 96.6723 35.1332 96.0509 35.1332C95.6105 35.1332 95.2359 35.0604 94.9269 34.9148C94.6215 34.7692 94.3712 34.5863 94.1759 34.3661C93.9805 34.1424 93.8314 33.9169 93.7284 33.6896H93.6592V38.0682H91.39ZM93.6112 30.9091C93.6112 31.3956 93.6787 31.82 93.8136 32.1822C93.9486 32.5444 94.1439 32.8267 94.3996 33.0291C94.6553 33.228 94.966 33.3274 95.3318 33.3274C95.7011 33.3274 96.0136 33.2262 96.2693 33.0238C96.5249 32.8178 96.7185 32.5337 96.8499 32.1715C96.9848 31.8058 97.0523 31.3849 97.0523 30.9091C97.0523 30.4368 96.9866 30.0213 96.8552 29.6626C96.7238 29.304 96.5303 29.0234 96.2746 28.821C96.0189 28.6186 95.7046 28.5174 95.3318 28.5174C94.9624 28.5174 94.6499 28.6151 94.3943 28.8104C94.1421 29.0057 93.9486 29.2827 93.8136 29.6413C93.6787 30 93.6112 30.4226 93.6112 30.9091ZM100.597 35V26.8182H102.797V28.2457H102.882C103.031 27.7379 103.282 27.3544 103.633 27.0952C103.985 26.8324 104.39 26.701 104.848 26.701C104.962 26.701 105.084 26.7081 105.215 26.7223C105.347 26.7365 105.462 26.756 105.562 26.7809V28.7944C105.455 28.7624 105.308 28.734 105.12 28.7092C104.931 28.6843 104.759 28.6719 104.603 28.6719C104.269 28.6719 103.971 28.7447 103.708 28.8903C103.449 29.0323 103.243 29.2312 103.09 29.4869C102.941 29.7425 102.866 30.0373 102.866 30.3711V35H100.597ZM109.766 35.1598C108.938 35.1598 108.223 34.984 107.619 34.6325C107.019 34.2773 106.556 33.7837 106.229 33.1516C105.902 32.516 105.739 31.7791 105.739 30.9411C105.739 30.0959 105.902 29.3572 106.229 28.7251C106.556 28.0895 107.019 27.5959 107.619 27.2443C108.223 26.8892 108.938 26.7116 109.766 26.7116C110.593 26.7116 111.307 26.8892 111.907 27.2443C112.511 27.5959 112.976 28.0895 113.303 28.7251C113.629 29.3572 113.793 30.0959 113.793 30.9411C113.793 31.7791 113.629 32.516 113.303 33.1516C112.976 33.7837 112.511 34.2773 111.907 34.6325C111.307 34.984 110.593 35.1598 109.766 35.1598ZM109.776 33.402C110.153 33.402 110.467 33.2955 110.719 33.0824C110.971 32.8658 111.161 32.571 111.289 32.1982C111.421 31.8253 111.486 31.4009 111.486 30.9251C111.486 30.4492 111.421 30.0249 111.289 29.652C111.161 29.2791 110.971 28.9844 110.719 28.7678C110.467 28.5511 110.153 28.4428 109.776 28.4428C109.396 28.4428 109.077 28.5511 108.818 28.7678C108.562 28.9844 108.368 29.2791 108.237 29.652C108.109 30.0249 108.045 30.4492 108.045 30.9251C108.045 31.4009 108.109 31.8253 108.237 32.1982C108.368 32.571 108.562 32.8658 108.818 33.0824C109.077 33.2955 109.396 33.402 109.776 33.402ZM117.998 35.1332C117.377 35.1332 116.814 34.9734 116.31 34.6538C115.809 34.3306 115.411 33.8565 115.116 33.2315C114.825 32.603 114.68 31.8324 114.68 30.9197C114.68 29.9822 114.831 29.2028 115.132 28.5813C115.434 27.9563 115.836 27.4893 116.336 27.1804C116.84 26.8679 117.393 26.7116 117.993 26.7116C118.451 26.7116 118.833 26.7898 119.138 26.946C119.447 27.0987 119.696 27.2905 119.884 27.5213C120.076 27.7486 120.221 27.9723 120.321 28.1925H120.39V24.0909H122.654V35H120.416V33.6896H120.321C120.214 33.9169 120.063 34.1424 119.868 34.3661C119.676 34.5863 119.426 34.7692 119.117 34.9148C118.811 35.0604 118.438 35.1332 117.998 35.1332ZM118.717 33.3274C119.083 33.3274 119.392 33.228 119.644 33.0291C119.9 32.8267 120.095 32.5444 120.23 32.1822C120.369 31.82 120.438 31.3956 120.438 30.9091C120.438 30.4226 120.37 30 120.235 29.6413C120.1 29.2827 119.905 29.0057 119.649 28.8104C119.394 28.6151 119.083 28.5174 118.717 28.5174C118.344 28.5174 118.03 28.6186 117.774 28.821C117.519 29.0234 117.325 29.304 117.194 29.6626C117.062 30.0213 116.997 30.4368 116.997 30.9091C116.997 31.3849 117.062 31.8058 117.194 32.1715C117.329 32.5337 117.522 32.8178 117.774 33.0238C118.03 33.2262 118.344 33.3274 118.717 33.3274ZM129.481 31.5163V26.8182H131.75V35H129.572V33.5138H129.486C129.302 33.9933 128.995 34.3786 128.565 34.6697C128.139 34.9609 127.619 35.1065 127.004 35.1065C126.457 35.1065 125.976 34.9822 125.561 34.7337C125.145 34.4851 124.82 34.1317 124.586 33.6737C124.355 33.2156 124.238 32.6669 124.234 32.0277V26.8182H126.504V31.6229C126.507 32.1058 126.637 32.4876 126.892 32.7681C127.148 33.0487 127.491 33.1889 127.92 33.1889C128.194 33.1889 128.45 33.1268 128.687 33.0025C128.925 32.8746 129.117 32.6864 129.263 32.4379C129.412 32.1893 129.485 31.8821 129.481 31.5163ZM136.977 35.1598C136.139 35.1598 135.418 34.9822 134.815 34.6271C134.214 34.2685 133.753 33.7713 133.43 33.1357C133.11 32.5 132.95 31.7685 132.95 30.9411C132.95 30.103 133.112 29.3679 133.435 28.7358C133.762 28.1001 134.225 27.6048 134.825 27.2496C135.425 26.891 136.139 26.7116 136.966 26.7116C137.68 26.7116 138.305 26.8413 138.841 27.1005C139.378 27.3597 139.802 27.7237 140.115 28.1925C140.427 28.6612 140.599 29.2116 140.631 29.8438H138.49C138.43 29.4354 138.27 29.1069 138.011 28.8583C137.755 28.6062 137.419 28.4801 137.004 28.4801C136.652 28.4801 136.345 28.576 136.082 28.7678C135.823 28.956 135.621 29.2312 135.475 29.5934C135.329 29.9556 135.257 30.3942 135.257 30.9091C135.257 31.4311 135.328 31.875 135.47 32.2408C135.615 32.6065 135.819 32.8853 136.082 33.0771C136.345 33.2688 136.652 33.3647 137.004 33.3647C137.263 33.3647 137.496 33.3114 137.702 33.2049C137.911 33.0984 138.083 32.9439 138.218 32.7415C138.357 32.5355 138.447 32.2887 138.49 32.0011H140.631C140.596 32.6261 140.425 33.1765 140.12 33.6523C139.818 34.1246 139.401 34.494 138.868 34.7603C138.335 35.0266 137.705 35.1598 136.977 35.1598ZM146.151 26.8182V28.5227H141.224V26.8182H146.151ZM142.342 24.858H144.612V32.4858C144.612 32.6953 144.644 32.8587 144.708 32.9759C144.771 33.0895 144.86 33.1694 144.974 33.2156C145.091 33.2617 145.226 33.2848 145.379 33.2848C145.485 33.2848 145.592 33.2759 145.698 33.2582C145.805 33.2369 145.886 33.2209 145.943 33.2102L146.3 34.8988C146.187 34.9343 146.027 34.9751 145.821 35.0213C145.615 35.071 145.364 35.1012 145.07 35.1119C144.523 35.1332 144.043 35.0604 143.632 34.8935C143.223 34.7266 142.905 34.4673 142.678 34.1158C142.451 33.7642 142.339 33.3203 142.342 32.7841V24.858ZM154.049 29.1513L151.972 29.2791C151.936 29.1016 151.86 28.9418 151.743 28.7997C151.626 28.6541 151.471 28.5387 151.279 28.4535C151.091 28.3647 150.866 28.3203 150.603 28.3203C150.251 28.3203 149.955 28.3949 149.713 28.544C149.472 28.6896 149.351 28.8849 149.351 29.13C149.351 29.3253 149.429 29.4904 149.585 29.6254C149.742 29.7603 150.01 29.8686 150.39 29.9503L151.871 30.2486C152.666 30.4119 153.259 30.6747 153.65 31.0369C154.04 31.3991 154.236 31.875 154.236 32.4645C154.236 33.0007 154.078 33.4712 153.762 33.8761C153.449 34.2809 153.019 34.5969 152.472 34.8242C151.929 35.0479 151.302 35.1598 150.592 35.1598C149.509 35.1598 148.646 34.9343 148.003 34.4833C147.364 34.0288 146.99 33.4109 146.879 32.6296L149.111 32.5124C149.179 32.8427 149.342 33.0948 149.601 33.2688C149.861 33.4393 150.193 33.5245 150.597 33.5245C150.995 33.5245 151.315 33.4482 151.556 33.2955C151.801 33.1392 151.926 32.9386 151.929 32.6935C151.926 32.4876 151.839 32.3189 151.668 32.1875C151.498 32.0526 151.235 31.9496 150.88 31.8786L149.463 31.5962C148.664 31.4364 148.069 31.1594 147.678 30.7653C147.291 30.3711 147.098 29.8686 147.098 29.2578C147.098 28.7322 147.24 28.2795 147.524 27.8995C147.812 27.5195 148.215 27.2266 148.733 27.0206C149.255 26.8146 149.866 26.7116 150.566 26.7116C151.599 26.7116 152.412 26.93 153.005 27.3668C153.602 27.8036 153.95 28.3984 154.049 29.1513ZM157.846 33.5085L157.787 34.0945C157.741 34.5632 157.652 35.0302 157.521 35.4954C157.393 35.9641 157.258 36.3885 157.116 36.7685C156.978 37.1484 156.866 37.4467 156.78 37.6634H155.31C155.364 37.4538 155.436 37.1609 155.529 36.7844C155.621 36.4116 155.708 35.9925 155.79 35.5273C155.871 35.0621 155.923 34.5881 155.944 34.1051L155.971 33.5085H157.846ZM3.17472 53.2699V58H0.90554V47.0909H3.1108V51.2617H3.20668C3.39134 50.7788 3.68963 50.4006 4.10156 50.1271C4.51349 49.8501 5.03018 49.7116 5.65163 49.7116C6.21982 49.7116 6.7152 49.8359 7.13778 50.0845C7.56392 50.3295 7.89418 50.6829 8.12855 51.1445C8.36648 51.6026 8.48367 52.1513 8.48011 52.7905V58H6.21094V53.1953C6.21449 52.6911 6.08665 52.2987 5.82742 52.0181C5.57173 51.7376 5.21307 51.5973 4.75142 51.5973C4.44247 51.5973 4.16903 51.663 3.93111 51.7944C3.69673 51.9258 3.51207 52.1175 3.37713 52.3697C3.24574 52.6183 3.17827 52.9183 3.17472 53.2699ZM13.7096 58.1598C12.868 58.1598 12.1435 57.9893 11.5363 57.6484C10.9326 57.304 10.4674 56.8175 10.1407 56.1889C9.81399 55.5568 9.65064 54.8093 9.65064 53.9464C9.65064 53.1048 9.81399 52.3661 10.1407 51.7305C10.4674 51.0948 10.9273 50.5994 11.5203 50.2443C12.1169 49.8892 12.8165 49.7116 13.619 49.7116C14.1588 49.7116 14.6613 49.7987 15.1265 49.9727C15.5952 50.1431 16.0036 50.4006 16.3516 50.745C16.7032 51.0895 16.9766 51.5227 17.1719 52.0447C17.3673 52.5632 17.4649 53.1705 17.4649 53.8665V54.4897H10.5562V53.0835H15.3289C15.3289 52.7567 15.2579 52.4673 15.1158 52.2152C14.9738 51.9631 14.7767 51.766 14.5246 51.6239C14.276 51.4783 13.9866 51.4055 13.6563 51.4055C13.3119 51.4055 13.0065 51.4854 12.7401 51.6452C12.4773 51.8015 12.2714 52.0128 12.1222 52.2791C11.9731 52.5419 11.8967 52.8349 11.8932 53.158V54.495C11.8932 54.8999 11.9678 55.2496 12.1169 55.5444C12.2696 55.8391 12.4844 56.0664 12.7614 56.2262C13.0384 56.386 13.3669 56.4659 13.7469 56.4659C13.999 56.4659 14.2298 56.4304 14.4393 56.3594C14.6489 56.2884 14.8282 56.1818 14.9773 56.0398C15.1265 55.8977 15.2401 55.7237 15.3182 55.5178L17.417 55.6562C17.3104 56.1605 17.092 56.6009 16.7618 56.9773C16.4351 57.3501 16.0125 57.6413 15.494 57.8509C14.9791 58.0568 14.3843 58.1598 13.7096 58.1598ZM20.9938 58.1545C20.4718 58.1545 20.0066 58.0639 19.5982 57.8828C19.1899 57.6982 18.8667 57.4265 18.6288 57.0678C18.3944 56.7056 18.2772 56.2546 18.2772 55.7148C18.2772 55.2603 18.3607 54.8786 18.5276 54.5696C18.6945 54.2607 18.9217 54.0121 19.2094 53.8239C19.497 53.6357 19.8237 53.4936 20.1895 53.3977C20.5588 53.3018 20.9459 53.2344 21.3507 53.1953C21.8266 53.1456 22.2101 53.0994 22.5013 53.0568C22.7925 53.0107 23.0038 52.9432 23.1352 52.8544C23.2666 52.7656 23.3323 52.6342 23.3323 52.4602V52.4283C23.3323 52.0909 23.2257 51.8299 23.0127 51.6452C22.8031 51.4606 22.5048 51.3683 22.1178 51.3683C21.7094 51.3683 21.3845 51.4588 21.143 51.6399C20.9015 51.8175 20.7417 52.0412 20.6636 52.3111L18.5649 52.1406C18.6714 51.6435 18.8809 51.2138 19.1934 50.8516C19.5059 50.4858 19.909 50.2053 20.4026 50.0099C20.8997 49.8111 21.475 49.7116 22.1284 49.7116C22.583 49.7116 23.018 49.7649 23.4335 49.8714C23.8525 49.978 24.2236 50.1431 24.5467 50.3668C24.8734 50.5906 25.1309 50.8782 25.3191 51.2298C25.5073 51.5778 25.6014 51.995 25.6014 52.4815V58H23.4494V56.8654H23.3855C23.2541 57.1211 23.0783 57.3466 22.8582 57.5419C22.638 57.7337 22.3734 57.8846 22.0645 57.9947C21.7556 58.1012 21.3987 58.1545 20.9938 58.1545ZM21.6437 56.5884C21.9775 56.5884 22.2722 56.5227 22.5279 56.3913C22.7836 56.2564 22.9842 56.0753 23.1298 55.848C23.2754 55.6207 23.3482 55.3633 23.3482 55.0756V54.2074C23.2772 54.2536 23.1796 54.2962 23.0553 54.3352C22.9345 54.3707 22.7978 54.4045 22.6451 54.4364C22.4924 54.4648 22.3397 54.4915 22.187 54.5163C22.0343 54.5376 21.8958 54.5572 21.7715 54.5749C21.5052 54.614 21.2726 54.6761 21.0737 54.7614C20.8749 54.8466 20.7204 54.962 20.6103 55.1076C20.5002 55.2496 20.4452 55.4272 20.4452 55.6403C20.4452 55.9492 20.557 56.1854 20.7808 56.3487C21.008 56.5085 21.2957 56.5884 21.6437 56.5884ZM29.3461 47.0909V58H27.0769V47.0909H29.3461ZM35.2307 49.8182V51.5227H30.3035V49.8182H35.2307ZM31.4221 47.858H33.6913V55.4858C33.6913 55.6953 33.7233 55.8587 33.7872 55.9759C33.8511 56.0895 33.9399 56.1694 34.0535 56.2156C34.1707 56.2617 34.3057 56.2848 34.4584 56.2848C34.5649 56.2848 34.6714 56.2759 34.778 56.2582C34.8845 56.2369 34.9662 56.2209 35.023 56.2102L35.3799 57.8988C35.2663 57.9343 35.1064 57.9751 34.9005 58.0213C34.6945 58.071 34.4442 58.1012 34.1494 58.1119C33.6025 58.1332 33.1231 58.0604 32.7112 57.8935C32.3028 57.7266 31.985 57.4673 31.7577 57.1158C31.5305 56.7642 31.4186 56.3203 31.4221 55.7841V47.858ZM38.8689 53.2699V58H36.5997V47.0909H38.8049V51.2617H38.9008C39.0855 50.7788 39.3838 50.4006 39.7957 50.1271C40.2076 49.8501 40.7243 49.7116 41.3458 49.7116C41.914 49.7116 42.4093 49.8359 42.8319 50.0845C43.2581 50.3295 43.5883 50.6829 43.8227 51.1445C44.0606 51.6026 44.1778 52.1513 44.1743 52.7905V58H41.9051V53.1953C41.9086 52.6911 41.7808 52.2987 41.5216 52.0181C41.2659 51.7376 40.9072 51.5973 40.4456 51.5973C40.1366 51.5973 39.8632 51.663 39.6252 51.7944C39.3909 51.9258 39.2062 52.1175 39.0713 52.3697C38.9399 52.6183 38.8724 52.9183 38.8689 53.2699ZM45.675 58V49.8182H47.9442V58H45.675ZM46.8149 48.7635C46.4776 48.7635 46.1882 48.6516 45.9467 48.4279C45.7088 48.2006 45.5898 47.929 45.5898 47.6129C45.5898 47.3004 45.7088 47.0323 45.9467 46.8086C46.1882 46.5813 46.4776 46.4677 46.8149 46.4677C47.1523 46.4677 47.4399 46.5813 47.6779 46.8086C47.9194 47.0323 48.0401 47.3004 48.0401 47.6129C48.0401 47.929 47.9194 48.2006 47.6779 48.4279C47.4399 48.6516 47.1523 48.7635 46.8149 48.7635ZM53.2056 58.1598C52.364 58.1598 51.6396 57.9893 51.0323 57.6484C50.4287 57.304 49.9635 56.8175 49.6367 56.1889C49.31 55.5568 49.1467 54.8093 49.1467 53.9464C49.1467 53.1048 49.31 52.3661 49.6367 51.7305C49.9635 51.0948 50.4233 50.5994 51.0164 50.2443C51.613 49.8892 52.3125 49.7116 53.1151 49.7116C53.6549 49.7116 54.1573 49.7987 54.6225 49.9727C55.0913 50.1431 55.4997 50.4006 55.8477 50.745C56.1992 51.0895 56.4727 51.5227 56.668 52.0447C56.8633 52.5632 56.961 53.1705 56.961 53.8665V54.4897H50.0522V53.0835H54.825C54.825 52.7567 54.7539 52.4673 54.6119 52.2152C54.4698 51.9631 54.2728 51.766 54.0206 51.6239C53.772 51.4783 53.4826 51.4055 53.1524 51.4055C52.8079 51.4055 52.5025 51.4854 52.2362 51.6452C51.9734 51.8015 51.7674 52.0128 51.6183 52.2791C51.4691 52.5419 51.3928 52.8349 51.3892 53.158V54.495C51.3892 54.8999 51.4638 55.2496 51.613 55.5444C51.7657 55.8391 51.9805 56.0664 52.2575 56.2262C52.5345 56.386 52.863 56.4659 53.2429 56.4659C53.4951 56.4659 53.7259 56.4304 53.9354 56.3594C54.1449 56.2884 54.3242 56.1818 54.4734 56.0398C54.6225 55.8977 54.7362 55.7237 54.8143 55.5178L56.913 55.6562C56.8065 56.1605 56.5881 56.6009 56.2578 56.9773C55.9311 57.3501 55.5086 57.6413 54.9901 57.8509C54.4752 58.0568 53.8804 58.1598 53.2056 58.1598ZM58.1568 58V49.8182H60.3567V51.2457H60.4419C60.5911 50.7379 60.8415 50.3544 61.193 50.0952C61.5446 49.8324 61.9494 49.701 62.4075 49.701C62.5211 49.701 62.6437 49.7081 62.775 49.7223C62.9064 49.7365 63.0218 49.756 63.1213 49.7809V51.7944C63.0147 51.7624 62.8674 51.734 62.6792 51.7092C62.491 51.6843 62.3187 51.6719 62.1625 51.6719C61.8287 51.6719 61.5304 51.7447 61.2676 51.8903C61.0084 52.0323 60.8024 52.2312 60.6497 52.4869C60.5005 52.7425 60.426 53.0373 60.426 53.3711V58H58.1568ZM69.4653 47.0909V58H67.1962V47.0909H69.4653ZM70.9981 58V49.8182H73.2673V58H70.9981ZM72.138 48.7635C71.8006 48.7635 71.5112 48.6516 71.2697 48.4279C71.0318 48.2006 70.9128 47.929 70.9128 47.6129C70.9128 47.3004 71.0318 47.0323 71.2697 46.8086C71.5112 46.5813 71.8006 46.4677 72.138 46.4677C72.4753 46.4677 72.763 46.5813 73.0009 46.8086C73.2424 47.0323 73.3631 47.3004 73.3631 47.6129C73.3631 47.929 73.2424 48.2006 73.0009 48.4279C72.763 48.6516 72.4753 48.7635 72.138 48.7635ZM82.4278 49.8182L79.5674 58H77.0106L74.1501 49.8182H76.5472L78.2464 55.6722H78.3316L80.0255 49.8182H82.4278ZM83.3041 58V49.8182H85.5732V58H83.3041ZM84.444 48.7635C84.1066 48.7635 83.8172 48.6516 83.5757 48.4279C83.3378 48.2006 83.2188 47.929 83.2188 47.6129C83.2188 47.3004 83.3378 47.0323 83.5757 46.8086C83.8172 46.5813 84.1066 46.4677 84.444 46.4677C84.7813 46.4677 85.069 46.5813 85.3069 46.8086C85.5484 47.0323 85.6691 47.3004 85.6691 47.6129C85.6691 47.929 85.5484 48.2006 85.3069 48.4279C85.069 48.6516 84.7813 48.7635 84.444 48.7635ZM89.3751 53.2699V58H87.106V49.8182H89.2686V51.2617H89.3645C89.5456 50.7859 89.8492 50.4094 90.2754 50.1325C90.7015 49.8519 91.2182 49.7116 91.8254 49.7116C92.3936 49.7116 92.889 49.8359 93.3116 50.0845C93.7342 50.3331 94.0626 50.6882 94.297 51.1499C94.5314 51.608 94.6486 52.1548 94.6486 52.7905V58H92.3794V53.1953C92.383 52.6946 92.2551 52.304 91.9959 52.0234C91.7367 51.7393 91.3798 51.5973 90.9252 51.5973C90.6198 51.5973 90.3499 51.663 90.1156 51.7944C89.8847 51.9258 89.7036 52.1175 89.5722 52.3697C89.4444 52.6183 89.3787 52.9183 89.3751 53.2699ZM99.8381 61.2386C99.103 61.2386 98.4727 61.1374 97.9471 60.935C97.4251 60.7362 97.0096 60.4645 96.7007 60.12C96.3917 59.7756 96.1911 59.3885 96.0988 58.9588L98.1975 58.6765C98.2614 58.8398 98.3626 58.9925 98.5011 59.1346C98.6396 59.2766 98.8225 59.3903 99.0498 59.4755C99.2806 59.5643 99.5611 59.6087 99.8914 59.6087C100.385 59.6087 100.792 59.4879 101.111 59.2464C101.434 59.0085 101.596 58.609 101.596 58.0479V56.5511H101.5C101.401 56.7784 101.251 56.9933 101.053 57.1957C100.854 57.3981 100.598 57.5632 100.286 57.6911C99.973 57.8189 99.6002 57.8828 99.1669 57.8828C98.5526 57.8828 97.9933 57.7408 97.489 57.4567C96.9883 57.169 96.5888 56.7305 96.2905 56.141C95.9958 55.5479 95.8484 54.7987 95.8484 53.8931C95.8484 52.9663 95.9993 52.1921 96.3012 51.5707C96.603 50.9492 97.0043 50.484 97.505 50.1751C98.0093 49.8661 98.5615 49.7116 99.1616 49.7116C99.6197 49.7116 100.003 49.7898 100.312 49.946C100.621 50.0987 100.87 50.2905 101.058 50.5213C101.25 50.7486 101.397 50.9723 101.5 51.1925H101.585V49.8182H103.838V58.0799C103.838 58.7759 103.668 59.3583 103.327 59.8271C102.986 60.2958 102.514 60.6474 101.91 60.8817C101.31 61.1197 100.619 61.2386 99.8381 61.2386ZM99.886 56.1783C100.252 56.1783 100.561 56.0877 100.813 55.9066C101.069 55.7219 101.264 55.4592 101.399 55.1183C101.537 54.7738 101.607 54.3619 101.607 53.8825C101.607 53.4031 101.539 52.9876 101.404 52.636C101.269 52.2809 101.074 52.0057 100.818 51.8104C100.563 51.6151 100.252 51.5174 99.886 51.5174C99.5132 51.5174 99.1989 51.6186 98.9432 51.821C98.6875 52.0199 98.494 52.2969 98.3626 52.652C98.2312 53.0071 98.1655 53.4173 98.1655 53.8825C98.1655 54.3548 98.2312 54.7631 98.3626 55.1076C98.4975 55.4485 98.6911 55.7131 98.9432 55.9013C99.1989 56.0859 99.5132 56.1783 99.886 56.1783ZM107.825 56.5085L107.767 57.0945C107.721 57.5632 107.632 58.0302 107.501 58.4954C107.373 58.9641 107.238 59.3885 107.096 59.7685C106.957 60.1484 106.845 60.4467 106.76 60.6634H105.29C105.343 60.4538 105.416 60.1609 105.508 59.7844C105.601 59.4116 105.688 58.9925 105.769 58.5273C105.851 58.0621 105.903 57.5881 105.924 57.1051L105.95 56.5085H107.825ZM119.097 52.1513L117.019 52.2791C116.984 52.1016 116.907 51.9418 116.79 51.7997C116.673 51.6541 116.519 51.5387 116.327 51.4535C116.139 51.3647 115.913 51.3203 115.65 51.3203C115.299 51.3203 115.002 51.3949 114.761 51.544C114.519 51.6896 114.399 51.8849 114.399 52.13C114.399 52.3253 114.477 52.4904 114.633 52.6254C114.789 52.7603 115.057 52.8686 115.437 52.9503L116.918 53.2486C117.714 53.4119 118.307 53.6747 118.697 54.0369C119.088 54.3991 119.283 54.875 119.283 55.4645C119.283 56.0007 119.125 56.4712 118.809 56.8761C118.497 57.2809 118.067 57.5969 117.52 57.8242C116.977 58.0479 116.35 58.1598 115.64 58.1598C114.557 58.1598 113.694 57.9343 113.051 57.4833C112.412 57.0288 112.037 56.4109 111.927 55.6296L114.159 55.5124C114.226 55.8427 114.39 56.0948 114.649 56.2688C114.908 56.4393 115.24 56.5245 115.645 56.5245C116.043 56.5245 116.362 56.4482 116.604 56.2955C116.849 56.1392 116.973 55.9386 116.977 55.6935C116.973 55.4876 116.886 55.3189 116.716 55.1875C116.545 55.0526 116.282 54.9496 115.927 54.8786L114.51 54.5962C113.711 54.4364 113.117 54.1594 112.726 53.7653C112.339 53.3711 112.145 52.8686 112.145 52.2578C112.145 51.7322 112.287 51.2795 112.572 50.8995C112.859 50.5195 113.262 50.2266 113.781 50.0206C114.303 49.8146 114.914 49.7116 115.613 49.7116C116.646 49.7116 117.46 49.93 118.053 50.3668C118.649 50.8036 118.997 51.3984 119.097 52.1513ZM122.76 58.1545C122.238 58.1545 121.773 58.0639 121.365 57.8828C120.956 57.6982 120.633 57.4265 120.395 57.0678C120.161 56.7056 120.044 56.2546 120.044 55.7148C120.044 55.2603 120.127 54.8786 120.294 54.5696C120.461 54.2607 120.688 54.0121 120.976 53.8239C121.263 53.6357 121.59 53.4936 121.956 53.3977C122.325 53.3018 122.712 53.2344 123.117 53.1953C123.593 53.1456 123.976 53.0994 124.268 53.0568C124.559 53.0107 124.77 52.9432 124.901 52.8544C125.033 52.7656 125.099 52.6342 125.099 52.4602V52.4283C125.099 52.0909 124.992 51.8299 124.779 51.6452C124.569 51.4606 124.271 51.3683 123.884 51.3683C123.476 51.3683 123.151 51.4588 122.909 51.6399C122.668 51.8175 122.508 52.0412 122.43 52.3111L120.331 52.1406C120.438 51.6435 120.647 51.2138 120.96 50.8516C121.272 50.4858 121.675 50.2053 122.169 50.0099C122.666 49.8111 123.241 49.7116 123.895 49.7116C124.349 49.7116 124.784 49.7649 125.2 49.8714C125.619 49.978 125.99 50.1431 126.313 50.3668C126.64 50.5906 126.897 50.8782 127.085 51.2298C127.274 51.5778 127.368 51.995 127.368 52.4815V58H125.216V56.8654H125.152C125.02 57.1211 124.845 57.3466 124.625 57.5419C124.404 57.7337 124.14 57.8846 123.831 57.9947C123.522 58.1012 123.165 58.1545 122.76 58.1545ZM123.41 56.5884C123.744 56.5884 124.039 56.5227 124.294 56.3913C124.55 56.2564 124.751 56.0753 124.896 55.848C125.042 55.6207 125.115 55.3633 125.115 55.0756V54.2074C125.044 54.2536 124.946 54.2962 124.822 54.3352C124.701 54.3707 124.564 54.4045 124.411 54.4364C124.259 54.4648 124.106 54.4915 123.953 54.5163C123.801 54.5376 123.662 54.5572 123.538 54.5749C123.272 54.614 123.039 54.6761 122.84 54.7614C122.641 54.8466 122.487 54.962 122.377 55.1076C122.267 55.2496 122.212 55.4272 122.212 55.6403C122.212 55.9492 122.323 56.1854 122.547 56.3487C122.774 56.5085 123.062 56.5884 123.41 56.5884ZM136.178 49.8182L133.318 58H130.761L127.9 49.8182H130.297L131.997 55.6722H132.082L133.776 49.8182H136.178ZM140.519 58.1598C139.678 58.1598 138.953 57.9893 138.346 57.6484C137.742 57.304 137.277 56.8175 136.95 56.1889C136.624 55.5568 136.46 54.8093 136.46 53.9464C136.46 53.1048 136.624 52.3661 136.95 51.7305C137.277 51.0948 137.737 50.5994 138.33 50.2443C138.927 49.8892 139.626 49.7116 140.429 49.7116C140.969 49.7116 141.471 49.7987 141.936 49.9727C142.405 50.1431 142.813 50.4006 143.161 50.745C143.513 51.0895 143.786 51.5227 143.982 52.0447C144.177 52.5632 144.275 53.1705 144.275 53.8665V54.4897H137.366V53.0835H142.139C142.139 52.7567 142.068 52.4673 141.926 52.2152C141.784 51.9631 141.586 51.766 141.334 51.6239C141.086 51.4783 140.796 51.4055 140.466 51.4055C140.122 51.4055 139.816 51.4854 139.55 51.6452C139.287 51.8015 139.081 52.0128 138.932 52.2791C138.783 52.5419 138.706 52.8349 138.703 53.158V54.495C138.703 54.8999 138.778 55.2496 138.927 55.5444C139.079 55.8391 139.294 56.0664 139.571 56.2262C139.848 56.386 140.177 56.4659 140.557 56.4659C140.809 56.4659 141.04 56.4304 141.249 56.3594C141.459 56.2884 141.638 56.1818 141.787 56.0398C141.936 55.8977 142.05 55.7237 142.128 55.5178L144.227 55.6562C144.12 56.1605 143.902 56.6009 143.572 56.9773C143.245 57.3501 142.822 57.6413 142.304 57.8509C141.789 58.0568 141.194 58.1598 140.519 58.1598ZM5.25746 72.8182V74.5227H0.330256V72.8182H5.25746ZM1.44886 70.858H3.71804V78.4858C3.71804 78.6953 3.75 78.8587 3.81392 78.9759C3.87784 79.0895 3.96662 79.1694 4.08026 79.2156C4.19744 79.2617 4.33239 79.2848 4.48509 79.2848C4.59162 79.2848 4.69815 79.2759 4.80469 79.2582C4.91122 79.2369 4.9929 79.2209 5.04972 79.2102L5.40661 80.8988C5.29297 80.9343 5.13317 80.9751 4.9272 81.0213C4.72124 81.071 4.47088 81.1012 4.17614 81.1119C3.62926 81.1332 3.14986 81.0604 2.73793 80.8935C2.32955 80.7266 2.01172 80.4673 1.78445 80.1158C1.55717 79.7642 1.44531 79.3203 1.44886 78.7841V70.858ZM8.89558 76.2699V81H6.6264V70.0909H8.83166V74.2617H8.92754C9.11219 73.7788 9.41049 73.4006 9.82242 73.1271C10.2344 72.8501 10.751 72.7116 11.3725 72.7116C11.9407 72.7116 12.4361 72.8359 12.8586 73.0845C13.2848 73.3295 13.615 73.6829 13.8494 74.1445C14.0873 74.6026 14.2045 75.1513 14.201 75.7905V81H11.9318V76.1953C11.9353 75.6911 11.8075 75.2987 11.5483 75.0181C11.2926 74.7376 10.9339 74.5973 10.4723 74.5973C10.1633 74.5973 9.88989 74.663 9.65197 74.7944C9.41759 74.9258 9.23293 75.1175 9.09799 75.3697C8.9666 75.6183 8.89913 75.9183 8.89558 76.2699ZM19.4304 81.1598C18.5888 81.1598 17.8644 80.9893 17.2571 80.6484C16.6535 80.304 16.1883 79.8175 15.8616 79.1889C15.5348 78.5568 15.3715 77.8093 15.3715 76.9464C15.3715 76.1048 15.5348 75.3661 15.8616 74.7305C16.1883 74.0948 16.6481 73.5994 17.2412 73.2443C17.8378 72.8892 18.5373 72.7116 19.3399 72.7116C19.8797 72.7116 20.3821 72.7987 20.8473 72.9727C21.3161 73.1431 21.7245 73.4006 22.0725 73.745C22.4241 74.0895 22.6975 74.5227 22.8928 75.0447C23.0881 75.5632 23.1858 76.1705 23.1858 76.8665V77.4897H16.277V76.0835H21.0498C21.0498 75.7567 20.9787 75.4673 20.8367 75.2152C20.6946 74.9631 20.4976 74.766 20.2454 74.6239C19.9969 74.4783 19.7074 74.4055 19.3772 74.4055C19.0327 74.4055 18.7273 74.4854 18.461 74.6452C18.1982 74.8015 17.9922 75.0128 17.8431 75.2791C17.6939 75.5419 17.6176 75.8349 17.614 76.158V77.495C17.614 77.8999 17.6886 78.2496 17.8378 78.5444C17.9905 78.8391 18.2053 79.0664 18.4823 79.2262C18.7593 79.386 19.0878 79.4659 19.4677 79.4659C19.7199 79.4659 19.9507 79.4304 20.1602 79.3594C20.3697 79.2884 20.5491 79.1818 20.6982 79.0398C20.8473 78.8977 20.961 78.7237 21.0391 78.5178L23.1378 78.6562C23.0313 79.1605 22.8129 79.6009 22.4826 79.9773C22.1559 80.3501 21.7334 80.6413 21.2149 80.8509C20.7 81.0568 20.1052 81.1598 19.4304 81.1598ZM27.5683 84.0682V72.8182H29.8055V74.1925H29.9067C30.0061 73.9723 30.15 73.7486 30.3382 73.5213C30.5299 73.2905 30.7785 73.0987 31.0839 72.946C31.3928 72.7898 31.7764 72.7116 32.2345 72.7116C32.8311 72.7116 33.3815 72.8679 33.8857 73.1804C34.39 73.4893 34.7931 73.9563 35.0949 74.5813C35.3968 75.2028 35.5477 75.9822 35.5477 76.9197C35.5477 77.8324 35.4003 78.603 35.1056 79.2315C34.8144 79.8565 34.4166 80.3306 33.9124 80.6538C33.4117 80.9734 32.8506 81.1332 32.2291 81.1332C31.7888 81.1332 31.4142 81.0604 31.1052 80.9148C30.7998 80.7692 30.5495 80.5863 30.3541 80.3661C30.1588 80.1424 30.0097 79.9169 29.9067 79.6896H29.8375V84.0682H27.5683ZM29.7895 76.9091C29.7895 77.3956 29.857 77.82 29.9919 78.1822C30.1269 78.5444 30.3222 78.8267 30.5779 79.0291C30.8335 79.228 31.1443 79.3274 31.51 79.3274C31.8794 79.3274 32.1919 79.2262 32.4475 79.0238C32.7032 78.8178 32.8968 78.5337 33.0281 78.1715C33.1631 77.8058 33.2306 77.3849 33.2306 76.9091C33.2306 76.4368 33.1649 76.0213 33.0335 75.6626C32.9021 75.304 32.7085 75.0234 32.4529 74.821C32.1972 74.6186 31.8829 74.5174 31.51 74.5174C31.1407 74.5174 30.8282 74.6151 30.5725 74.8104C30.3204 75.0057 30.1269 75.2827 29.9919 75.6413C29.857 76 29.7895 76.4226 29.7895 76.9091ZM39.0446 70.0909V81H36.7755V70.0909H39.0446ZM42.9105 81.1545C42.3885 81.1545 41.9233 81.0639 41.5149 80.8828C41.1065 80.6982 40.7833 80.4265 40.5454 80.0678C40.311 79.7056 40.1939 79.2546 40.1939 78.7148C40.1939 78.2603 40.2773 77.8786 40.4442 77.5696C40.6111 77.2607 40.8384 77.0121 41.126 76.8239C41.4137 76.6357 41.7404 76.4936 42.1061 76.3977C42.4755 76.3018 42.8625 76.2344 43.2674 76.1953C43.7432 76.1456 44.1267 76.0994 44.4179 76.0568C44.7091 76.0107 44.9204 75.9432 45.0518 75.8544C45.1832 75.7656 45.2489 75.6342 45.2489 75.4602V75.4283C45.2489 75.0909 45.1424 74.8299 44.9293 74.6452C44.7198 74.4606 44.4215 74.3683 44.0344 74.3683C43.626 74.3683 43.3011 74.4588 43.0596 74.6399C42.8181 74.8175 42.6583 75.0412 42.5802 75.3111L40.4815 75.1406C40.588 74.6435 40.7975 74.2138 41.11 73.8516C41.4225 73.4858 41.8256 73.2053 42.3192 73.0099C42.8164 72.8111 43.3917 72.7116 44.0451 72.7116C44.4996 72.7116 44.9346 72.7649 45.3501 72.8714C45.7691 72.978 46.1402 73.1431 46.4634 73.3668C46.7901 73.5906 47.0475 73.8782 47.2358 74.2298C47.424 74.5778 47.5181 74.995 47.5181 75.4815V81H45.3661V79.8654H45.3022C45.1708 80.1211 44.995 80.3466 44.7748 80.5419C44.5546 80.7337 44.2901 80.8846 43.9811 80.9947C43.6722 81.1012 43.3153 81.1545 42.9105 81.1545ZM43.5603 79.5884C43.8941 79.5884 44.1889 79.5227 44.4446 79.3913C44.7002 79.2564 44.9009 79.0753 45.0465 78.848C45.1921 78.6207 45.2649 78.3633 45.2649 78.0756V77.2074C45.1939 77.2536 45.0962 77.2962 44.9719 77.3352C44.8512 77.3707 44.7145 77.4045 44.5618 77.4364C44.4091 77.4648 44.2564 77.4915 44.1037 77.5163C43.951 77.5376 43.8125 77.5572 43.6882 77.5749C43.4218 77.614 43.1892 77.6761 42.9904 77.7614C42.7915 77.8466 42.637 77.962 42.527 78.1076C42.4169 78.2496 42.3618 78.4272 42.3618 78.6403C42.3618 78.9492 42.4737 79.1854 42.6974 79.3487C42.9247 79.5085 43.2123 79.5884 43.5603 79.5884ZM51.2627 76.2699V81H48.9935V72.8182H51.1562V74.2617H51.2521C51.4332 73.7859 51.7368 73.4094 52.1629 73.1325C52.5891 72.8519 53.1058 72.7116 53.713 72.7116C54.2812 72.7116 54.7766 72.8359 55.1992 73.0845C55.6217 73.3331 55.9502 73.6882 56.1846 74.1499C56.419 74.608 56.5362 75.1548 56.5362 75.7905V81H54.267V76.1953C54.2705 75.6946 54.1427 75.304 53.8835 75.0234C53.6242 74.7393 53.2673 74.5973 52.8128 74.5973C52.5074 74.5973 52.2375 74.663 52.0031 74.7944C51.7723 74.9258 51.5912 75.1175 51.4598 75.3697C51.332 75.6183 51.2663 75.9183 51.2627 76.2699ZM61.7683 81.1598C60.9267 81.1598 60.2022 80.9893 59.595 80.6484C58.9913 80.304 58.5261 79.8175 58.1994 79.1889C57.8727 78.5568 57.7093 77.8093 57.7093 76.9464C57.7093 76.1048 57.8727 75.3661 58.1994 74.7305C58.5261 74.0948 58.986 73.5994 59.579 73.2443C60.1756 72.8892 60.8752 72.7116 61.6777 72.7116C62.2175 72.7116 62.72 72.7987 63.1852 72.9727C63.654 73.1431 64.0623 73.4006 64.4103 73.745C64.7619 74.0895 65.0353 74.5227 65.2307 75.0447C65.426 75.5632 65.5236 76.1705 65.5236 76.8665V77.4897H58.6149V76.0835H63.3876C63.3876 75.7567 63.3166 75.4673 63.1745 75.2152C63.0325 74.9631 62.8354 74.766 62.5833 74.6239C62.3347 74.4783 62.0453 74.4055 61.715 74.4055C61.3706 74.4055 61.0652 74.4854 60.7988 74.6452C60.5361 74.8015 60.3301 75.0128 60.1809 75.2791C60.0318 75.5419 59.9554 75.8349 59.9519 76.158V77.495C59.9519 77.8999 60.0265 78.2496 60.1756 78.5444C60.3283 78.8391 60.5432 79.0664 60.8201 79.2262C61.0971 79.386 61.4256 79.4659 61.8056 79.4659C62.0577 79.4659 62.2885 79.4304 62.4981 79.3594C62.7076 79.2884 62.8869 79.1818 63.0361 79.0398C63.1852 78.8977 63.2988 78.7237 63.377 78.5178L65.4757 78.6562C65.3691 79.1605 65.1508 79.6009 64.8205 79.9773C64.4938 80.3501 64.0712 80.6413 63.5527 80.8509C63.0378 81.0568 62.443 81.1598 61.7683 81.1598ZM71.0714 72.8182V74.5227H66.1442V72.8182H71.0714ZM67.2628 70.858H69.5319V78.4858C69.5319 78.6953 69.5639 78.8587 69.6278 78.9759C69.6917 79.0895 69.7805 79.1694 69.8942 79.2156C70.0113 79.2617 70.1463 79.2848 70.299 79.2848C70.4055 79.2848 70.5121 79.2759 70.6186 79.2582C70.7251 79.2369 70.8068 79.2209 70.8636 79.2102L71.2205 80.8988C71.1069 80.9343 70.9471 80.9751 70.7411 81.0213C70.5351 81.071 70.2848 81.1012 69.99 81.1119C69.4432 81.1332 68.9638 81.0604 68.5518 80.8935C68.1434 80.7266 67.8256 80.4673 67.5983 80.1158C67.3711 79.7642 67.2592 79.3203 67.2628 78.7841V70.858ZM79.8031 72.8182V74.5227H74.8759V72.8182H79.8031ZM75.9945 70.858H78.2637V78.4858C78.2637 78.6953 78.2957 78.8587 78.3596 78.9759C78.4235 79.0895 78.5123 79.1694 78.6259 79.2156C78.7431 79.2617 78.878 79.2848 79.0307 79.2848C79.1373 79.2848 79.2438 79.2759 79.3503 79.2582C79.4569 79.2369 79.5386 79.2209 79.5954 79.2102L79.9523 80.8988C79.8386 80.9343 79.6788 80.9751 79.4729 81.0213C79.2669 81.071 79.0165 81.1012 78.7218 81.1119C78.1749 81.1332 77.6955 81.0604 77.2836 80.8935C76.8752 80.7266 76.5574 80.4673 76.3301 80.1158C76.1028 79.7642 75.991 79.3203 75.9945 78.7841V70.858ZM84.6051 81.1598C83.7777 81.1598 83.0622 80.984 82.4585 80.6325C81.8583 80.2773 81.3949 79.7837 81.0682 79.1516C80.7415 78.516 80.5781 77.7791 80.5781 76.9411C80.5781 76.0959 80.7415 75.3572 81.0682 74.7251C81.3949 74.0895 81.8583 73.5959 82.4585 73.2443C83.0622 72.8892 83.7777 72.7116 84.6051 72.7116C85.4325 72.7116 86.1463 72.8892 86.7465 73.2443C87.3502 73.5959 87.8154 74.0895 88.1421 74.7251C88.4688 75.3572 88.6321 76.0959 88.6321 76.9411C88.6321 77.7791 88.4688 78.516 88.1421 79.1516C87.8154 79.7837 87.3502 80.2773 86.7465 80.6325C86.1463 80.984 85.4325 81.1598 84.6051 81.1598ZM84.6158 79.402C84.9922 79.402 85.3065 79.2955 85.5586 79.0824C85.8107 78.8658 86.0007 78.571 86.1286 78.1982C86.26 77.8253 86.3257 77.4009 86.3257 76.9251C86.3257 76.4492 86.26 76.0249 86.1286 75.652C86.0007 75.2791 85.8107 74.9844 85.5586 74.7678C85.3065 74.5511 84.9922 74.4428 84.6158 74.4428C84.2358 74.4428 83.9162 74.5511 83.657 74.7678C83.4013 74.9844 83.2078 75.2791 83.0764 75.652C82.9485 76.0249 82.8846 76.4492 82.8846 76.9251C82.8846 77.4009 82.9485 77.8253 83.0764 78.1982C83.2078 78.571 83.4013 78.8658 83.657 79.0824C83.9162 79.2955 84.2358 79.402 84.6158 79.402ZM92.8375 81.1332C92.2161 81.1332 91.6532 80.9734 91.149 80.6538C90.6482 80.3306 90.2505 79.8565 89.9558 79.2315C89.6646 78.603 89.519 77.8324 89.519 76.9197C89.519 75.9822 89.6699 75.2028 89.9718 74.5813C90.2736 73.9563 90.6749 73.4893 91.1756 73.1804C91.6799 72.8679 92.2321 72.7116 92.8322 72.7116C93.2903 72.7116 93.672 72.7898 93.9774 72.946C94.2864 73.0987 94.535 73.2905 94.7232 73.5213C94.9149 73.7486 95.0605 73.9723 95.16 74.1925H95.2292V70.0909H97.4931V81H95.2558V79.6896H95.16C95.0534 79.9169 94.9025 80.1424 94.7072 80.3661C94.5154 80.5863 94.2651 80.7692 93.9561 80.9148C93.6507 81.0604 93.2779 81.1332 92.8375 81.1332ZM93.5566 79.3274C93.9224 79.3274 94.2313 79.228 94.4835 79.0291C94.7392 78.8267 94.9345 78.5444 95.0694 78.1822C95.2079 77.82 95.2772 77.3956 95.2772 76.9091C95.2772 76.4226 95.2097 76 95.0747 75.6413C94.9398 75.2827 94.7445 75.0057 94.4888 74.8104C94.2331 74.6151 93.9224 74.5174 93.5566 74.5174C93.1838 74.5174 92.8695 74.6186 92.6138 74.821C92.3581 75.0234 92.1646 75.304 92.0332 75.6626C91.9018 76.0213 91.8361 76.4368 91.8361 76.9091C91.8361 77.3849 91.9018 77.8058 92.0332 78.1715C92.1681 78.5337 92.3617 78.8178 92.6138 79.0238C92.8695 79.2262 93.1838 79.3274 93.5566 79.3274ZM101.407 81.1545C100.885 81.1545 100.42 81.0639 100.011 80.8828C99.6029 80.6982 99.2797 80.4265 99.0418 80.0678C98.8074 79.7056 98.6902 79.2546 98.6902 78.7148C98.6902 78.2603 98.7737 77.8786 98.9406 77.5696C99.1075 77.2607 99.3348 77.0121 99.6224 76.8239C99.91 76.6357 100.237 76.4936 100.603 76.3977C100.972 76.3018 101.359 76.2344 101.764 76.1953C102.24 76.1456 102.623 76.0994 102.914 76.0568C103.205 76.0107 103.417 75.9432 103.548 75.8544C103.68 75.7656 103.745 75.6342 103.745 75.4602V75.4283C103.745 75.0909 103.639 74.8299 103.426 74.6452C103.216 74.4606 102.918 74.3683 102.531 74.3683C102.122 74.3683 101.797 74.4588 101.556 74.6399C101.315 74.8175 101.155 75.0412 101.077 75.3111L98.9779 75.1406C99.0844 74.6435 99.2939 74.2138 99.6064 73.8516C99.9189 73.4858 100.322 73.2053 100.816 73.0099C101.313 72.8111 101.888 72.7116 102.541 72.7116C102.996 72.7116 103.431 72.7649 103.846 72.8714C104.266 72.978 104.637 73.1431 104.96 73.3668C105.286 73.5906 105.544 73.8782 105.732 74.2298C105.92 74.5778 106.014 74.995 106.014 75.4815V81H103.862V79.8654H103.799C103.667 80.1211 103.491 80.3466 103.271 80.5419C103.051 80.7337 102.786 80.8846 102.478 80.9947C102.169 81.1012 101.812 81.1545 101.407 81.1545ZM102.057 79.5884C102.391 79.5884 102.685 79.5227 102.941 79.3913C103.197 79.2564 103.397 79.0753 103.543 78.848C103.688 78.6207 103.761 78.3633 103.761 78.0756V77.2074C103.69 77.2536 103.593 77.2962 103.468 77.3352C103.348 77.3707 103.211 77.4045 103.058 77.4364C102.905 77.4648 102.753 77.4915 102.6 77.5163C102.447 77.5376 102.309 77.5572 102.185 77.5749C101.918 77.614 101.686 77.6761 101.487 77.7614C101.288 77.8466 101.133 77.962 101.023 78.1076C100.913 78.2496 100.858 78.4272 100.858 78.6403C100.858 78.9492 100.97 79.1854 101.194 79.3487C101.421 79.5085 101.709 79.5884 102.057 79.5884ZM108.598 84.0682C108.31 84.0682 108.04 84.0451 107.788 83.9989C107.54 83.9563 107.334 83.9013 107.17 83.8338L107.682 82.1399C107.948 82.2216 108.188 82.266 108.401 82.2731C108.617 82.2802 108.804 82.2305 108.96 82.1239C109.12 82.0174 109.25 81.8363 109.349 81.5806L109.482 81.2344L106.547 72.8182H108.933L110.627 78.8267H110.713L112.422 72.8182H114.825L111.645 81.8842C111.492 82.3246 111.284 82.7081 111.022 83.0348C110.762 83.3651 110.434 83.619 110.036 83.7965C109.638 83.9776 109.159 84.0682 108.598 84.0682ZM116.515 81.1385C116.163 81.1385 115.861 81.0142 115.609 80.7656C115.361 80.5135 115.236 80.2116 115.236 79.8601C115.236 79.5121 115.361 79.2138 115.609 78.9652C115.861 78.7166 116.163 78.5923 116.515 78.5923C116.856 78.5923 117.154 78.7166 117.41 78.9652C117.665 79.2138 117.793 79.5121 117.793 79.8601C117.793 80.0945 117.733 80.3093 117.612 80.5046C117.495 80.6964 117.34 80.8509 117.149 80.968C116.957 81.0817 116.745 81.1385 116.515 81.1385Z" fill="white"/>
</svg>
